<svg width="21" height="14" viewBox="0 0 21 14" fill="none" xmlns="http://www.w3.org/2000/svg">
<path fill-rule="evenodd" clip-rule="evenodd" d="M5.90104e-07 7.00004C5.90105e-07 6.58583 0.335787 6.25004 0.750001 6.25004L18.7507 6.25004C19.1649 6.25004 19.5007 6.58583 19.5007 7.00004C19.5007 7.41425 19.1649 7.75004 18.7507 7.75004L0.750001 7.75004C0.335787 7.75004 5.90103e-07 7.41425 5.90104e-07 7.00004Z" fill="white"/>
<path fill-rule="evenodd" clip-rule="evenodd" d="M14.5199 0.173901C14.8381 -0.0912781 15.311 -0.048294 15.5762 0.269909L20.3096 5.94981C20.6959 6.41337 20.6959 7.08674 20.3096 7.55031L15.5762 13.2302C15.311 13.5484 14.8381 13.5914 14.5199 13.3262C14.2017 13.061 14.1587 12.5881 14.4239 12.2699L19.0239 6.75006L14.4239 1.23021C14.1587 0.912004 14.2017 0.43908 14.5199 0.173901Z" fill="white"/>
</svg>
