<svg width="110" height="110" viewBox="0 0 110 110" fill="none" xmlns="http://www.w3.org/2000/svg">
<g filter="url(#filter0_d_1_2076)">
<circle cx="54.6" cy="50.6" r="36.5" fill="white"/>
</g>
<path fill-rule="evenodd" clip-rule="evenodd" d="M55.9959 31.0186C46.056 31.0186 37.998 39.0765 37.998 49.0165C37.998 53.3931 39.5584 57.4015 42.1546 60.5213C42.4104 60.8286 42.5289 61.2274 42.4823 61.6246C42.4358 62.0217 42.2284 62.3823 41.9085 62.6222L37.2197 66.1388C36.8458 66.4193 37.0441 67.0144 37.5116 67.0144H55.9959C65.9359 67.0144 73.9938 58.9564 73.9938 49.0165C73.9938 39.0765 65.9359 31.0186 55.9959 31.0186ZM35.0794 49.0165C35.0794 37.4646 44.4441 28.1 55.9959 28.1C67.5478 28.1 76.9124 37.4646 76.9124 49.0165C76.9124 60.5683 67.5478 69.9329 55.9959 69.9329H37.5116C34.2393 69.9329 32.8508 65.7673 35.4686 63.8039L38.9742 61.1747C36.5229 57.7485 35.0794 53.5495 35.0794 49.0165Z" fill="#9ECEDD"/>
<path d="M48.7001 49.0165C48.7001 50.3597 47.6112 51.4486 46.268 51.4486C44.9247 51.4486 43.8358 50.3597 43.8358 49.0165C43.8358 47.6733 44.9247 46.5844 46.268 46.5844C47.6112 46.5844 48.7001 47.6733 48.7001 49.0165Z" fill="#9ECEDD"/>
<path d="M58.4288 49.0165C58.4288 50.3597 57.3398 51.4486 55.9966 51.4486C54.6534 51.4486 53.5645 50.3597 53.5645 49.0165C53.5645 47.6733 54.6534 46.5844 55.9966 46.5844C57.3398 46.5844 58.4288 47.6733 58.4288 49.0165Z" fill="#9ECEDD"/>
<path d="M68.1573 49.0165C68.1573 50.3597 67.0684 51.4486 65.7251 51.4486C64.3819 51.4486 63.293 50.3597 63.293 49.0165C63.293 47.6733 64.3819 46.5844 65.7251 46.5844C67.0684 46.5844 68.1573 47.6733 68.1573 49.0165Z" fill="#9ECEDD"/>
<defs>
<filter id="filter0_d_1_2076" x="-2.47955e-05" y="-2.47955e-05" width="109.2" height="109.2" filterUnits="userSpaceOnUse" color-interpolation-filters="sRGB">
<feFlood flood-opacity="0" result="BackgroundImageFix"/>
<feColorMatrix in="SourceAlpha" type="matrix" values="0 0 0 0 0 0 0 0 0 0 0 0 0 0 0 0 0 0 127 0" result="hardAlpha"/>
<feOffset dy="4"/>
<feGaussianBlur stdDeviation="9.05"/>
<feComposite in2="hardAlpha" operator="out"/>
<feColorMatrix type="matrix" values="0 0 0 0 0.101961 0 0 0 0 0.101961 0 0 0 0 0.105882 0 0 0 1 0"/>
<feBlend mode="normal" in2="BackgroundImageFix" result="effect1_dropShadow_1_2076"/>
<feBlend mode="normal" in="SourceGraphic" in2="effect1_dropShadow_1_2076" result="shape"/>
</filter>
</defs>
</svg>
